<svg width="1058" height="390" viewBox="0 0 1058 390" fill="none" xmlns="http://www.w3.org/2000/svg">
<g filter="url(#filter0_d_2_2)">
<path fill-rule="evenodd" clip-rule="evenodd" d="M249.796 91.767H97.288V375.687H4V86V6.08401V0H407V0.175613C409.935 0.0585375 412.892 0 415.87 0C458.458 0 493.779 10.309 521.833 30.927C534.677 39.715 546 50.024 555.802 61.854C572.702 82.134 584.532 104.442 591.292 128.778L504.088 155.649C499.694 136.045 488.202 118.976 469.612 104.442C454.402 92.95 435.981 87.204 414.349 87.204C386.633 87.204 363.649 97.175 345.397 117.117C327.145 137.397 318.019 161.733 318.019 190.125C318.019 218.517 326.976 242.684 344.89 262.626C362.395 282.824 385.431 292.964 414 293.046V293H613.172V6.08401H706.967V164.775L821.042 6.08401H930.554L803.804 181.506L939.68 375.687H823.577L706.967 200.772V293H707V381H424.886C421.088 381.176 417.238 381.264 413.335 381.264C387.309 381.264 362.466 376.363 338.806 366.561C315.484 357.097 295.204 343.746 277.966 326.508C261.066 310.284 247.715 290.173 237.913 266.175C227.773 242.515 222.703 217.334 222.703 190.632C222.703 164.944 227.604 140.439 237.406 117.117C240.858 108.354 244.988 99.9041 249.796 91.767Z" fill="#CDCDCD"/>
<path fill-rule="evenodd" clip-rule="evenodd" d="M324.796 91.767H172.288V375.687H79V86V6.08401V0H482V0.175613C484.935 0.0585375 487.892 0 490.87 0C533.458 0 568.779 10.309 596.833 30.927C609.677 39.715 621 50.024 630.802 61.854C647.702 82.134 659.532 104.442 666.292 128.778L579.088 155.649C574.694 136.045 563.202 118.976 544.612 104.442C529.402 92.95 510.981 87.204 489.349 87.204C461.633 87.204 438.649 97.175 420.397 117.117C402.145 137.397 393.019 161.733 393.019 190.125C393.019 218.517 401.976 242.684 419.89 262.626C437.395 282.824 460.431 292.964 489 293.046V293H688.172V6.08401H781.967V164.775L896.042 6.08401H1005.55L878.804 181.506L1014.68 375.687H898.577L781.967 200.772V293H782V381H499.886C496.088 381.176 492.238 381.264 488.335 381.264C462.309 381.264 437.466 376.363 413.806 366.561C390.484 357.097 370.204 343.746 352.966 326.508C336.066 310.284 322.715 290.173 312.913 266.175C302.773 242.515 297.703 217.334 297.703 190.632C297.703 164.944 302.604 140.439 312.406 117.117C315.858 108.354 319.988 99.9041 324.796 91.767Z" fill="#FFB800"/>
<path fill-rule="evenodd" clip-rule="evenodd" d="M363.796 91.767H211.288V375.687H118V86V6.08401V0H521V0.175613C523.935 0.0585375 526.892 0 529.87 0C572.458 0 607.779 10.309 635.833 30.927C648.677 39.715 660 50.024 669.802 61.854C686.702 82.134 698.532 104.442 705.292 128.778L618.088 155.649C613.694 136.045 602.202 118.976 583.612 104.442C568.402 92.95 549.981 87.204 528.349 87.204C500.633 87.204 477.649 97.175 459.397 117.117C441.145 137.397 432.019 161.733 432.019 190.125C432.019 218.517 440.976 242.684 458.89 262.626C476.395 282.824 499.431 292.964 528 293.046V293H727.172V6.08401H820.967V164.775L935.042 6.08401H1044.55L917.804 181.506L1053.68 375.687H937.577L820.967 200.772V293H821V381H538.886C535.088 381.176 531.238 381.264 527.335 381.264C501.309 381.264 476.466 376.363 452.806 366.561C429.484 357.097 409.204 343.746 391.966 326.508C375.066 310.284 361.715 290.173 351.913 266.175C341.773 242.515 336.703 217.334 336.703 190.632C336.703 164.944 341.604 140.439 351.406 117.117C354.858 108.354 358.988 99.9041 363.796 91.767Z" fill="black"/>
</g>
<defs>
<filter id="filter0_d_2_2" x="0" y="0" width="1057.68" height="389.264" filterUnits="userSpaceOnUse" color-interpolation-filters="sRGB">
<feFlood flood-opacity="0" result="BackgroundImageFix"/>
<feColorMatrix in="SourceAlpha" type="matrix" values="0 0 0 0 0 0 0 0 0 0 0 0 0 0 0 0 0 0 127 0" result="hardAlpha"/>
<feOffset dy="4"/>
<feGaussianBlur stdDeviation="2"/>
<feComposite in2="hardAlpha" operator="out"/>
<feColorMatrix type="matrix" values="0 0 0 0 0 0 0 0 0 0 0 0 0 0 0 0 0 0 0.25 0"/>
<feBlend mode="normal" in2="BackgroundImageFix" result="effect1_dropShadow_2_2"/>
<feBlend mode="normal" in="SourceGraphic" in2="effect1_dropShadow_2_2" result="shape"/>
</filter>
</defs>
</svg>
