<svg width="32" height="32" viewBox="0 0 32 32" fill="none" xmlns="http://www.w3.org/2000/svg">
<path opacity="0.1" fill-rule="evenodd" clip-rule="evenodd" d="M0 16C0 7.16344 7.16344 0 16 0C24.8366 0 32 7.16344 32 16C32 24.8366 24.8366 32 16 32C7.16344 32 0 24.8366 0 16Z" fill="#0B0D17"/>
<path d="M16 9L16 7" stroke="black" stroke-linecap="round"/>
<path d="M14 20L13.5 17" stroke="black" stroke-linecap="round"/>
<path d="M17.9999 20L18.4999 17" stroke="black" stroke-linecap="round"/>
<path d="M6 13H26V13C24.7333 13 24.1 13 23.6161 13.2997C23.456 13.3988 23.3108 13.52 23.1846 13.6598C22.8032 14.0822 22.6899 14.7054 22.4633 15.9516L21.5972 20.7155C21.3117 22.2859 21.1689 23.071 20.6123 23.5355C20.0558 24 19.2577 24 17.6617 24H14.3383C12.7423 24 11.9442 24 11.3877 23.5355C10.8311 23.071 10.6883 22.2859 10.4028 20.7155L9.53666 15.9516C9.31007 14.7054 9.19677 14.0822 8.81536 13.6598C8.6892 13.52 8.54395 13.3988 8.38391 13.2997C7.90002 13 7.26668 13 6 13V13Z" stroke="black" stroke-linecap="round"/>
</svg>

