<svg width="214" height="214" viewBox="0 0 214 214" fill="none" xmlns="http://www.w3.org/2000/svg">
<path d="M107 44.5833L107 26.75" stroke="#757575" stroke-width="13" stroke-linecap="round"/>
<path d="M89.1667 142.667L84.7084 115.917" stroke="#757575" stroke-width="13" stroke-linecap="round"/>
<path d="M124.833 142.667L129.291 115.917" stroke="#757575" stroke-width="13" stroke-linecap="round"/>
<path d="M17.8333 80.25H196.167H172.755C171.159 80.25 170.361 80.25 169.804 80.7145C169.248 81.179 169.105 81.9641 168.819 83.5345L152.18 175.049C151.895 176.619 151.752 177.404 151.196 177.869C150.639 178.333 149.841 178.333 148.245 178.333H65.7549C64.1588 178.333 63.3608 178.333 62.8042 177.869C62.2477 177.404 62.1049 176.619 61.8194 175.049L45.1804 83.5345C44.8949 81.9641 44.7522 81.179 44.1956 80.7145C43.639 80.25 42.841 80.25 41.2449 80.25H17.8333Z" stroke="#757575" stroke-width="13" stroke-linecap="round"/>
</svg>
