<svg width="33" height="33" viewBox="0 0 33 33" fill="none" xmlns="http://www.w3.org/2000/svg">
<path d="M16.5 6.875L16.5 4.125" stroke="black" stroke-width="2" stroke-linecap="round"/>
<path d="M13.75 22L13.0625 17.875" stroke="black" stroke-width="2" stroke-linecap="round"/>
<path d="M19.2499 22L19.9374 17.875" stroke="black" stroke-width="2" stroke-linecap="round"/>
<path d="M2.75 12.375H30.25H29.4633C27.8673 12.375 27.0692 12.375 26.5127 12.8395C25.9561 13.304 25.8133 14.0891 25.5278 15.6595L23.9722 24.2155C23.6867 25.7859 23.5439 26.571 22.9873 27.0355C22.4308 27.5 21.6327 27.5 20.0367 27.5H12.9633C11.3673 27.5 10.5692 27.5 10.0127 27.0355C9.45609 26.571 9.31334 25.7859 9.02783 24.2155L7.47217 15.6595C7.18666 14.0891 7.04391 13.304 6.48734 12.8395C5.93078 12.375 5.13275 12.375 3.53669 12.375H2.75Z" stroke="black" stroke-width="2" stroke-linecap="round"/>
</svg>
