<svg width="20" height="18" viewBox="0 0 20 18" fill="none" xmlns="http://www.w3.org/2000/svg">
<path d="M9.70379 17.4793L1.85975 9.80231C0.819438 8.78427 0.23495 7.40347 0.234863 5.96366C0.234777 4.52386 0.819098 3.14299 1.85928 2.12483C2.89947 1.10667 4.31031 0.534631 5.78144 0.534546C7.25257 0.534461 8.66348 1.10634 9.70379 2.12438C10.7446 1.10749 12.1552 0.536359 13.6258 0.536359C15.0965 0.536359 16.507 1.10749 17.5478 2.12438C18.5864 3.14326 19.1696 4.5237 19.1696 5.96289C19.1696 7.40208 18.5864 8.78252 17.5478 9.8014L9.70379 17.4793ZM5.78131 2.34424C5.04987 2.34421 4.33485 2.55649 3.72669 2.95421C3.11853 3.35194 2.64455 3.91725 2.36469 4.57865C2.08484 5.24004 2.01169 5.96781 2.15449 6.6699C2.29729 7.37199 2.64962 8.01686 3.16693 8.52295L9.70379 14.9206L16.2407 8.52295C16.6161 8.16368 16.9091 7.73026 17.1001 7.25154C17.2911 6.77282 17.3757 6.25978 17.3483 5.74656C17.3209 5.23334 17.1822 4.73171 16.9413 4.27505C16.7005 3.8184 16.363 3.41718 15.9513 3.09811C15.5397 2.77904 15.0634 2.54943 14.554 2.42456C14.0446 2.29969 13.5139 2.28242 12.9972 2.3739C12.4805 2.46539 11.9896 2.66352 11.5573 2.95513C11.1249 3.24674 10.7609 3.62513 10.4896 4.06512L9.70379 5.30647L8.918 4.06512C8.59362 3.53586 8.13351 3.09878 7.5833 2.79723C7.03308 2.49569 6.41188 2.34015 5.78131 2.34605V2.34424Z" fill="#757575"/>
</svg>
