<svg width="35" height="35" viewBox="0 0 35 35" fill="none" xmlns="http://www.w3.org/2000/svg">
<path d="M19.2086 4.375H13.125C10.3752 4.375 9.00023 4.375 8.14596 5.22927C7.29169 6.08354 7.29169 7.45847 7.29169 10.2083V24.7917C7.29169 27.5415 7.29169 28.9165 8.14596 29.7707C9.00023 30.625 10.3752 30.625 13.125 30.625H21.875C24.6249 30.625 25.9998 30.625 26.8541 29.7707C27.7084 28.9165 27.7084 27.5415 27.7084 24.7917V12.8748C27.7084 12.2787 27.7084 11.9806 27.5973 11.7126C27.4863 11.4446 27.2756 11.2339 26.8541 10.8124L21.271 5.22927C20.8495 4.80777 20.6387 4.59702 20.3707 4.48601C20.1027 4.375 19.8047 4.375 19.2086 4.375Z" stroke="black" stroke-width="2"/>
<path d="M13.125 18.9583L21.875 18.9583" stroke="black" stroke-width="2" stroke-linecap="round"/>
<path d="M13.125 24.7917L18.9583 24.7917" stroke="black" stroke-width="2" stroke-linecap="round"/>
<path d="M18.9583 4.375V10.2083C18.9583 11.5833 18.9583 12.2707 19.3854 12.6979C19.8126 13.125 20.5001 13.125 21.875 13.125H27.7083" stroke="black" stroke-width="2"/>
</svg>
