<svg width="23" height="23" viewBox="0 0 23 23" fill="none" xmlns="http://www.w3.org/2000/svg">
<path d="M11.7039 20.4792L3.85987 12.8022C2.81956 11.7841 2.23507 10.4033 2.23499 8.96354C2.2349 7.52373 2.81922 6.14286 3.85941 5.12471C4.89959 4.10655 6.31043 3.53451 7.78156 3.53442C9.2527 3.53434 10.6636 4.10622 11.7039 5.12426C12.7447 4.10737 14.1553 3.53624 15.6259 3.53624C17.0966 3.53624 18.5072 4.10737 19.548 5.12426V5.12426C20.5865 6.14314 21.1698 7.52357 21.1698 8.96277C21.1698 10.402 20.5865 11.7824 19.548 12.8013L11.7039 20.4792ZM7.78143 5.34412C7.04999 5.34409 6.33497 5.55636 5.72681 5.95409C5.11865 6.35182 4.64467 6.91713 4.36482 7.57853C4.08496 8.23992 4.01181 8.96769 4.15461 9.66978C4.29741 10.3719 4.64974 11.0167 5.16705 11.5228L11.7039 17.9205L18.2408 11.5228C18.6162 11.1636 18.9092 10.7301 19.1002 10.2514C19.2912 9.7727 19.3758 9.25966 19.3484 8.74644C19.3211 8.23322 19.1823 7.73159 18.9415 7.27493C18.7006 6.81827 18.3631 6.41706 17.9515 6.09799C17.5398 5.77892 17.0635 5.54931 16.5541 5.42443C16.0448 5.29956 15.5141 5.28229 14.9974 5.37378C14.4806 5.46526 13.9898 5.6634 13.5574 5.95501C13.125 6.24662 12.761 6.62501 12.4897 7.065L11.7039 8.30635L10.9181 7.065C10.5937 6.53574 10.1336 6.09866 9.58342 5.79711C9.03321 5.49556 8.41201 5.34003 7.78143 5.34593V5.34412Z" fill="#757575"/>
</svg>
