<svg width="39" height="45" viewBox="0 0 39 45" fill="none" xmlns="http://www.w3.org/2000/svg">
<path d="M19.8991 42.6442L19.2405 41.2966L19.2405 41.2966L19.8991 42.6442ZM19.1012 42.6442L18.4426 43.9919L18.4426 43.9919L19.1012 42.6442ZM35.7918 19.9584C35.7918 26.1697 32.4189 31.1529 28.5499 34.8235C24.6881 38.4873 20.4925 40.6847 19.2405 41.2966L20.5577 43.9919C21.9374 43.3177 26.4381 40.9623 30.6147 36.9998C34.7842 33.0441 38.7918 27.3275 38.7918 19.9584H35.7918ZM19.5002 3.66675C28.4978 3.66675 35.7918 10.9608 35.7918 19.9584H38.7918C38.7918 9.30392 30.1547 0.666748 19.5002 0.666748V3.66675ZM3.2085 19.9584C3.2085 10.9608 10.5025 3.66675 19.5002 3.66675V0.666748C8.84567 0.666748 0.208496 9.30392 0.208496 19.9584H3.2085ZM19.7599 41.2966C18.5078 40.6847 14.3122 38.4873 10.4504 34.8235C6.58143 31.1529 3.2085 26.1697 3.2085 19.9584H0.208496C0.208496 27.3275 4.21611 33.0441 8.3856 36.9998C12.5622 40.9623 17.063 43.3177 18.4426 43.9919L19.7599 41.2966ZM19.2405 41.2966C19.3127 41.2613 19.402 41.2381 19.5002 41.2381C19.5983 41.2381 19.6876 41.2613 19.7599 41.2966L18.4426 43.9919C19.1141 44.3201 19.8862 44.3201 20.5577 43.9919L19.2405 41.2966ZM25.6252 19.9584C25.6252 23.3412 22.8829 26.0834 19.5002 26.0834V29.0834C24.5398 29.0834 28.6252 24.998 28.6252 19.9584H25.6252ZM19.5002 13.8334C22.8829 13.8334 25.6252 16.5757 25.6252 19.9584H28.6252C28.6252 14.9188 24.5398 10.8334 19.5002 10.8334V13.8334ZM13.3752 19.9584C13.3752 16.5757 16.1174 13.8334 19.5002 13.8334V10.8334C14.4606 10.8334 10.3752 14.9188 10.3752 19.9584H13.3752ZM19.5002 26.0834C16.1174 26.0834 13.3752 23.3412 13.3752 19.9584H10.3752C10.3752 24.998 14.4606 29.0834 19.5002 29.0834V26.0834Z" fill="#757575"/>
</svg>
