<svg width="37" height="37" viewBox="0 0 37 37" fill="none" xmlns="http://www.w3.org/2000/svg">
<path d="M3.67962 6.09816L7.07067 2.70711C7.46119 2.31658 8.09436 2.31658 8.48488 2.70711L14.8484 9.07067C15.239 9.46119 15.239 10.0944 14.8484 10.4849L12.1763 13.157C11.872 13.4614 11.7965 13.9263 11.989 14.3113L12.1269 14.5872C14.3525 19.0383 17.9617 22.6475 22.4128 24.8731L22.6887 25.011C23.0737 25.2035 23.5386 25.128 23.843 24.8237L26.5151 22.1516C26.9056 21.761 27.5388 21.761 27.9293 22.1516L34.2929 28.5151C34.6834 28.9056 34.6834 29.5388 34.2929 29.9293L30.9018 33.3204C28.7905 35.4317 25.4479 35.6693 23.0592 33.8777L14.2952 27.3048C12.5517 25.9971 11.0029 24.4483 9.69524 22.7048L3.12226 13.9408C1.33072 11.5521 1.56827 8.20951 3.67962 6.09816Z" stroke="#757575" stroke-width="3"/>
</svg>
