<svg width="11" height="10" viewBox="0 0 11 10" fill="none" xmlns="http://www.w3.org/2000/svg">
<path d="M3.92022 3.84396L4.22534 3.80261L4.36966 3.53061L5.58761 1.23501C5.59077 1.23436 5.59472 1.2339 5.5992 1.23391C5.60448 1.23393 5.60924 1.2346 5.61303 1.23556C5.61315 1.23559 5.61327 1.23562 5.61338 1.23565L6.831 3.53061L6.97531 3.80261L7.28044 3.84396L9.94005 4.20441L8.04646 5.9197L7.79844 6.14437L7.85927 6.47344L8.31657 8.94753C8.31514 8.94702 8.31361 8.94637 8.31194 8.94555L8.31184 8.94551L5.86374 7.74931L5.60033 7.6206L5.33692 7.74931L2.88881 8.94551L2.88698 8.94641C2.88594 8.94692 2.88497 8.94736 2.88405 8.94774L3.34139 6.47344L3.40221 6.14437L3.15419 5.9197L1.2606 4.20441L3.92022 3.84396ZM1.17112 4.2178C1.17112 4.2178 1.17127 4.21771 1.17161 4.21757L1.17112 4.2178Z" fill="#FFAD00" stroke="#FFAD00" stroke-width="1.2"/>
</svg>
