<svg width="11" height="10" viewBox="0 0 11 10" fill="none" xmlns="http://www.w3.org/2000/svg">
<path d="M3.6209 3.84384L3.92603 3.80249L4.07034 3.53048L5.28829 1.23489C5.29145 1.23424 5.2954 1.23378 5.29988 1.23379C5.30516 1.23381 5.30993 1.23448 5.31371 1.23544C5.31383 1.23547 5.31395 1.2355 5.31407 1.23553L6.53168 3.53048L6.67599 3.80249L6.98112 3.84384L9.64073 4.20429L7.74714 5.91958L7.49913 6.14425L7.55995 6.47332L8.01725 8.94741C8.01583 8.9469 8.01429 8.94625 8.01262 8.94543L8.01253 8.94539L5.56442 7.74919L5.30101 7.62048L5.0376 7.74919L2.58949 8.94538L2.58766 8.94629C2.58662 8.9468 2.58565 8.94724 2.58473 8.94762L3.04207 6.47332L3.10289 6.14425L2.85488 5.91958L0.961287 4.20429L3.6209 3.84384ZM0.871805 4.21768C0.871799 4.21767 0.871954 4.21759 0.872292 4.21744L0.871805 4.21768Z" fill="white" stroke="#CCCCCC" stroke-width="1.2"/>
</svg>
