<svg width="23" height="23" viewBox="0 0 23 23" fill="none" xmlns="http://www.w3.org/2000/svg">
<path d="M8.22061 21.7806L8.53684 22.7293H8.53684L8.22061 21.7806ZM15.0956 19.489L14.7794 18.5403L14.7794 18.5403L15.0956 19.489ZM21.7071 5.23039L22.4142 5.9375L21.7071 5.23039ZM7.26961 11.2071L6.5625 11.9142L7.26961 11.2071ZM1.29289 5.23039L0.585787 5.9375L1.29289 5.23039ZM2 2H21V0H2V2ZM2 4.52329V2H0V4.52329H2ZM7.97671 10.5L2 4.52329L0.585787 5.9375L6.5625 11.9142L7.97671 10.5ZM6.5625 11.9142V21.3063H8.5625V11.9142H6.5625ZM6.5625 21.3063C6.5625 22.3301 7.56555 23.0531 8.53684 22.7293L7.90439 20.8319C8.22815 20.724 8.5625 20.965 8.5625 21.3063H6.5625ZM8.53684 22.7293L15.4118 20.4376L14.7794 18.5403L7.90439 20.8319L8.53684 22.7293ZM15.4118 20.4376C16.0244 20.2335 16.4375 19.6603 16.4375 19.0146H14.4375C14.4375 18.7994 14.5752 18.6083 14.7794 18.5403L15.4118 20.4376ZM16.4375 19.0146V11.9142H14.4375V19.0146H16.4375ZM21 4.52329L15.0233 10.5L16.4375 11.9142L22.4142 5.9375L21 4.52329ZM21 2V4.52329H23V2H21ZM22.4142 5.9375C22.7893 5.56243 23 5.05372 23 4.52329H21L22.4142 5.9375ZM16.4375 11.9142V11.9142L15.0233 10.5C14.6482 10.8751 14.4375 11.3838 14.4375 11.9142H16.4375ZM6.5625 11.9142H8.5625C8.5625 11.3838 8.35179 10.8751 7.97671 10.5L6.5625 11.9142ZM0 4.52329C0 5.05372 0.210714 5.56243 0.585787 5.9375L2 4.52329L2 4.52329H0ZM21 2H23C23 0.895431 22.1046 0 21 0V2ZM2 0C0.895431 0 0 0.89543 0 2H2V2V0Z" fill="#757575"/>
</svg>
